Exact Audio Copy V1.0 beta 3 from 29. August 2011

EAC 取り込みログファイル 日付 : 9. 1月 2014, 20:39

不明なアーティスト / 不明なタイトル

使用ドライブ   : ASUS    DRW-24B3ST   Adapter: 2  ID: 0

読み込みモード            : セキュアモード
ドライブが正確なデータ転送能力を持つ : はい
オーディオキャッシュを使用できる   : はい
C2エラー情報を検出する       : いいえ

読み込みサンプルオフセット訂正値       : 6
リードイン・リードアウトをオーバーリードする : いいえ
欠落したオフセットサンプルを無音で補完する  : はい
曲の先頭と末端の無音領域を削除する      : いいえ
CRC計算で無音のサンプルを使用するか    : はい
使用インターフェース             :  XP/Vista/Win 7のWin32標準インターフェイス 

使用出力モード    : 内蔵WAV出力ルーチン
サンプルフォーマット : 44.100 Hz; 16 Bit; ステレオ


TOC情報を抜き出します

     トラック |   スタート   |    長さ    | 始めのセクター | 最終セクター 
    -----------------------------------------------
       1  |  0:00.00 |  4:37.53 |      0  |  20827 
       2  |  4:37.53 |  3:48.40 |  20828  |  37967 
       3  |  8:26.18 |  4:05.70 |  37968  |  56412 
       4  | 12:32.13 |  3:25.27 |  56413  |  71814 
       5  | 15:57.40 |  3:42.45 |  71815  |  88509 
       6  | 19:40.10 |  3:57.35 |  88510  | 106319 
       7  | 23:37.45 |  4:32.00 | 106320  | 126719 
       8  | 28:09.45 |  4:00.47 | 126720  | 144766 
       9  | 32:10.17 |  3:19.63 | 144767  | 159754 


範囲取り込みステータス & エラー

選択された範囲

     ファイル名 D:\newcd\185\不明なアーティスト - 不明なタイトル.wav

     ピークレベル 98.9 %
     取り込みスピード 7.5 X
     範囲取り込み品質 100.0 %
     コピーCRC C99F05CE
     コピー OK

エラーは発生しませんでした

 
AccurateRipの概要
 
トラック  1  データーベースに送信できませんでした
トラック  2  データーベースに送信できませんでした
トラック  3  データーベースに送信できませんでした
トラック  4  データーベースに送信できませんでした
トラック  5  データーベースに送信できませんでした
トラック  6  データーベースに送信できませんでした
トラック  7  データーベースに送信できませんでした
トラック  8  データーベースに送信できませんでした
トラック  9  データーベースに送信できませんでした
 
どのトラックもAccurateRipのデーターベースに存在しません

ステータス報告完了

---- CUETools DB Plugin V2.1.3

[CTDB TOCID: UJ9qMzmud.TrFbwloLxzJTVQISk-] found, Submit result: database access error: The operation has timed out
[95906d05] (1/1) Accurately ripped

